<?xml version="1.0" encoding="UTF-8"?><!DOCTYPE svg PUBLIC "-//W3C//DTD SVG 1.1//EN" "http://www.w3.org/Graphics/SVG/1.1/DTD/svg11.dtd"><svg xmlns="http://www.w3.org/2000/svg" xmlns:xlink="http://www.w3.org/1999/xlink"><defs>
    <polygon id="ic_linkedin-a" points=".049 .051 9.987 .051 9.987 10.345 .049 10.345"/>
    <polygon id="ic_linkedin-c" points=".05 .03 2.975 .03 2.975 9.828 .05 9.828"/>
    <polygon id="ic_linkedin-e" points="0 .017 3.479 .017 3.479 3.608 0 3.608"/>
  </defs><symbol id="account" viewBox="0 0 17 17">
    <g id="Page-1" stroke="none" stroke-width="1" fill="none" fill-rule="evenodd">
        <g id="Category-Maintenance" transform="translate(-1206.000000, -13.000000)" fill-rule="nonzero">
            <g id="MENU-TOP" transform="translate(148.000000, 12.000000)">
                <g id="Nav">
                    <g id="baseline-account_circle-24px" transform="translate(1058.000000, 1.000000)">
                        <path d="M8.33333333,0 C3.73333333,0 0,3.73333333 0,8.33333333 C0,12.9333333 3.73333333,16.6666667 8.33333333,16.6666667 C12.9333333,16.6666667 16.6666667,12.9333333 16.6666667,8.33333333 C16.6666667,3.73333333 12.9333333,0 8.33333333,0 Z" id="Path" fill="#06205B"/>
                        <path d="M8.33333333,2.5 C9.71666667,2.5 10.8333333,3.61666667 10.8333333,5 C10.8333333,6.38333333 9.71666667,7.5 8.33333333,7.5 C6.95,7.5 5.83333333,6.38333333 5.83333333,5 C5.83333333,3.61666667 6.95,2.5 8.33333333,2.5 Z" id="Path" fill="#FFFFFF"/>
                        <path d="M8.33333333,14.3333333 C6.25,14.3333333 4.40833333,13.2666667 3.33333333,11.65 C3.35833333,9.99166667 6.66666667,9.08333333 8.33333333,9.08333333 C9.99166667,9.08333333 13.3083333,9.99166667 13.3333333,11.65 C12.2583333,13.2666667 10.4166667,14.3333333 8.33333333,14.3333333 Z" id="Path" fill="#FFFFFF"/>
                    </g>
                </g>
            </g>
        </g>
    </g>
</symbol><symbol id="arrow-left">
    <path stroke="none" d="M28.985 24H47v2H28.985v3L23 25l5.985-4z"/>
</symbol><symbol id="arrow-right">
    <path stroke="none" fill-rule="nonzero" d="M41.015 24H23v2h18.015v3L47 25l-5.985-4z"/>
</symbol><symbol id="bt-arrow" viewBox="0 0 14 7">
    <g id="Page-1" stroke="none" stroke-width="1" fill="none" fill-rule="evenodd" stroke-linecap="round" stroke-linejoin="round">
        <g id="Home-Page-Shop-Animate" transform="translate(-1243.000000, -6790.000000)" stroke="currentColor" stroke-width="2">
            <g id="FOOTER" transform="translate(0.000000, 6768.000000)">
                <g id="Back-to">
                    <polyline id="Path-2" points="1244 28 1250.30345 23 1256 27.8843281"/>
                </g>
            </g>
        </g>
    </g>
</symbol><symbol id="chevron_up" viewBox="0 0 24 24">
    <path d="M7.41 15.41L12 10.83l4.59 4.58L18 14l-6-6-6 6z"/>
</symbol><symbol id="close" viewBox="0 0 14 14">
  <polygon points="14 1.41 12.59 0 7 5.59 1.41 0 0 1.41 5.59 7 0 12.59 1.41 14 7 8.41 12.59 14 14 12.59 8.41 7"/>
</symbol><symbol id="ic_email" viewBox="0 0 18 14">
  <path fill-rule="evenodd" d="M91.6666667,18.3333333 C92.5833333,18.3333333 93.3333333,19.0833333 93.3333333,20 L93.3333333,30 C93.3333333,30.9166667 92.5833333,31.6666667 91.6666667,31.6666667 L78.3333333,31.6666667 C77.4166667,31.6666667 76.6666667,30.9166667 76.6666667,30 L76.675,20 C76.675,19.0833333 77.4166667,18.3333333 78.3333333,18.3333333 L91.6666667,18.3333333 Z M91.6666667,21.6666667 L91.6666667,20 L85,24.1666667 L78.3333333,20 L78.3333333,21.6666667 L85,25.8333333 L91.6666667,21.6666667 Z" transform="translate(-76 -18)"/>
</symbol><symbol id="ic_link" viewBox="0 0 25 13">
  <path fill-rule="evenodd" d="M15.7125,25.5 C15.7125,27.56625 17.3920833,29.2458333 19.4583333,29.2458333 L24.2916667,29.2458333 L24.2916667,31.5416667 L19.4583333,31.5416667 C16.1233333,31.5416667 13.4166667,28.835 13.4166667,25.5 C13.4166667,22.165 16.1233333,19.4583333 19.4583333,19.4583333 L24.2916667,19.4583333 L24.2916667,21.7541667 L19.4583333,21.7541667 C17.3920833,21.7541667 15.7125,23.43375 15.7125,25.5 Z M20.6666667,26.7083333 L20.6666667,24.2916667 L30.3333333,24.2916667 L30.3333333,26.7083333 L20.6666667,26.7083333 Z M31.5416667,19.4583333 C34.8766667,19.4583333 37.5833333,22.165 37.5833333,25.5 C37.5833333,28.835 34.8766667,31.5416667 31.5416667,31.5416667 L26.7083333,31.5416667 L26.7083333,29.2458333 L31.5416667,29.2458333 C33.6079167,29.2458333 35.2875,27.56625 35.2875,25.5 C35.2875,23.43375 33.6079167,21.7541667 31.5416667,21.7541667 L26.7083333,21.7541667 L26.7083333,19.4583333 L31.5416667,19.4583333 Z" transform="translate(-13 -19)"/>
</symbol><symbol id="ic_linkedin" viewBox="0 0 15 15">
  
  <g fill="none" fill-rule="evenodd">
    <g transform="translate(5 4.655)">
      <mask id="ic_linkedin-b" fill="#fff">
        <use xlink:href="#ic_linkedin-a"/>
      </mask>
      <path fill="#011061" d="M0.04949375,10.3448533 L3.31380625,10.3448533 L3.31380625,4.40370957 C3.31380625,4.40370957 3.38630625,2.73819233 5.05468125,2.68846006 C6.72311875,2.63879203 6.72311875,4.67717284 6.72311875,5.02517027 L6.72311875,10.3448533 L9.98736875,10.3448533 L9.98736875,3.93138145 C9.98736875,3.93138145 9.96318125,0.202681516 6.33624375,0.0535489398 C6.33624375,0.0535489398 4.13586875,-0.0956478903 3.31380625,1.7687342 L3.31380625,0.351814093 L0.04949375,0.351814093 L0.04949375,10.3448533 Z" mask="url(#ic_linkedin-b)"/>
    </g>
    <g transform="translate(0 5.172)">
      <mask id="ic_linkedin-d" fill="#fff">
        <use xlink:href="#ic_linkedin-c"/>
      </mask>
      <path fill="#011061" d="M-0.468851786,9.79766247 L3.42482312,9.79766247 L3.42482312,0 L-0.497702658,0 C-0.497702658,0 -0.512090819,9.76106101 -0.468851786,9.79766247" mask="url(#ic_linkedin-d)"/>
    </g>
    <mask id="ic_linkedin-f" fill="#fff">
      <use xlink:href="#ic_linkedin-e"/>
    </mask>
    <path fill="#011061" d="M2.97857759,2.05415361 C2.97857759,2.90293486 2.31181438,3.59106583 1.48931463,3.59106583 C0.66681488,3.59106583 0,2.90293486 0,2.05415361 C0,1.20537235 0.66681488,0.517241379 1.48931463,0.517241379 C2.31181438,0.517241379 2.97857759,1.20537235 2.97857759,2.05415361" mask="url(#ic_linkedin-f)"/>
  </g>
</symbol><symbol id="ic_twitter" viewBox="0 0 19 15">
  <path d="M22.3103812,33 C20.309859,33 18.3645425,32.4216864 16.6841074,31.3267388 C16.527255,31.2243972 16.4608435,31.0262223 16.5232551,30.8475425 C16.5856666,30.6688328 16.7641071,30.5551166 16.9473712,30.5819559 C18.3565425,30.7484252 19.8273313,30.4576413 21.061268,29.7412501 C19.8409489,29.3692318 18.8486878,28.4099137 18.4477775,27.1379581 C18.4045718,27.0006867 18.4357775,26.8512345 18.530189,26.7440266 C18.5878064,26.6790033 18.6638061,26.6351767 18.746247,26.6173236 C17.7931916,25.8805716 17.1914291,24.7174062 17.1914291,23.4397186 C17.1914291,23.2959388 17.2666641,23.1408142 17.3890754,23.0677003 C17.5115162,22.9945864 17.6627509,22.971867 17.7859858,23.0400848 C17.8211915,23.0603859 17.8571914,23.079881 17.8932207,23.0977639 C17.4603105,22.4487546 17.2202525,21.6722362 17.2202525,20.861594 C17.2202525,20.1581598 17.4034872,19.4645178 17.7523977,18.8569467 C17.8180151,18.7416183 17.9356323,18.6668922 18.0668671,18.6563237 C18.1973078,18.6465911 18.3245427,18.7018221 18.4077482,18.8041637 C20.0265659,20.8193796 22.3695868,22.0970673 24.8966659,22.3594296 C24.8854601,22.2367868 24.8798719,22.111696 24.8798719,21.9882174 C24.8798719,19.7894255 26.6427184,18 28.8088871,18 C29.8147364,18 30.7886152,18.3955736 31.5152008,19.0941117 C32.1834043,18.9389573 32.823549,18.678237 33.4213116,18.3183994 C33.5645463,18.2339109 33.7438104,18.2460915 33.8742217,18.3500751 C34.0038683,18.4556709 34.0566916,18.6311264 34.0062506,18.7919532 C33.8790158,19.1956472 33.6901929,19.5733378 33.4477232,19.9120682 C33.6141638,19.8535831 33.7773985,19.7877835 33.9382509,19.7155055 C34.0991032,19.6407794 34.2919261,19.6862778 34.4063668,19.8259675 C34.5208076,19.9640451 34.5312193,20.1630559 34.4327785,20.3133142 C33.967839,21.0167484 33.4013116,21.6299919 32.7475199,22.1392817 C32.7499316,22.2269945 32.7507257,22.3155433 32.7507257,22.4032561 C32.7507552,27.6114821 28.8449164,33 22.3103812,33 Z" transform="translate(-16 -18)"/>
</symbol><symbol id="ltr-arrow" viewBox="0 0 9 12">
    <g id="Page-1" stroke="none" stroke-width="1" fill="none" fill-rule="evenodd">
        <g id="Home-Page-Shop-Animate" transform="translate(-1294.000000, -6887.000000)" fill="currentColor" fill-rule="nonzero" stroke="none">
            <g id="FOOTER" transform="translate(0.000000, 6768.000000)">
                <g id="social-media" transform="translate(1088.000000, 113.000000)">
                    <g id="baseline-keyboard_arrow_right-24px" transform="translate(197.112185, 0.000000)">
                        <polygon id="Shape" points="9.25242441 16.59 14.1856146 12 9.25242441 7.41 10.7711576 6 17.2338522 12 10.7711576 18"/>
                    </g>
                </g>
            </g>
        </g>

    </g>
</symbol><symbol id="search" viewBox="0 0 18 18">
    <g id="Page-1" stroke="none" stroke-width="1" fill="none" fill-rule="evenodd">
        <g id="Home-Page-Shop-Animate" transform="translate(-1271.000000, -74.000000)" fill="currentColor" fill-rule="nonzero" stroke="none">
            <g id="MENU-TOP" transform="translate(149.000000, 11.000000)">
                <g id="Nav">
                    <g id="baseline-search-24px" transform="translate(1119.000000, 60.000000)">
                        <path d="M15.5,14 L14.71,14 L14.43,13.73 C15.41,12.59 16,11.11 16,9.5 C16,5.91 13.09,3 9.5,3 C5.91,3 3,5.91 3,9.5 C3,13.09 5.91,16 9.5,16 C11.11,16 12.59,15.41 13.73,14.43 L14,14.71 L14,15.5 L19,20.49 L20.49,19 L15.5,14 Z M9.5,14 C7.01,14 5,11.99 5,9.5 C5,7.01 7.01,5 9.5,5 C11.99,5 14,7.01 14,9.5 C14,11.99 11.99,14 9.5,14 Z" id="Shape"/>
                    </g>
                </g>
            </g>
        </g>
    </g>
</symbol></svg>